<?xml version="1.0" encoding="UTF-8" standalone="no"?>
<!DOCTYPE svg PUBLIC "-//W3C//DTD SVG 1.1//EN" "http://www.w3.org/Graphics/SVG/1.1/DTD/svg11.dtd">
<svg width="100%" height="100%" viewBox="0 0 200 200" version="1.1" xmlns="http://www.w3.org/2000/svg" xmlns:xlink="http://www.w3.org/1999/xlink" xml:space="preserve" xmlns:serif="http://www.serif.com/" style="fill-rule:evenodd;clip-rule:evenodd;stroke-linejoin:round;stroke-miterlimit:2;">
    <g transform="matrix(0.325751,0,0,0.325751,69.3991,74.1845)">
        <path d="M108.537,18.972C106.482,12.648 100.589,8.366 93.939,8.366C87.29,8.366 81.396,12.648 79.341,18.972L69.003,50.79C69.003,50.79 35.548,50.79 35.548,50.79C28.898,50.79 23.005,55.072 20.95,61.396C18.895,67.72 21.146,74.649 26.526,78.557L53.592,98.222C53.592,98.222 43.253,130.04 43.253,130.04C41.199,136.364 43.45,143.292 48.829,147.201C54.209,151.109 61.494,151.109 66.873,147.201L93.939,127.536C93.939,127.536 121.005,147.201 121.005,147.201C126.385,151.109 133.67,151.109 139.049,147.201C144.429,143.292 146.68,136.364 144.625,130.04L134.287,98.222C134.287,98.222 161.353,78.557 161.353,78.557C166.733,74.649 168.984,67.72 166.929,61.396C164.874,55.072 158.981,50.79 152.331,50.79L118.876,50.79C118.876,50.79 108.537,18.972 108.537,18.972ZM93.939,23.715L107.724,66.139L152.331,66.139L116.243,92.359L130.027,134.783L93.939,108.563L57.851,134.783L71.636,92.359L35.548,66.139L80.155,66.139L93.939,23.715Z" style="fill-opacity:0.1;"/>
    </g>
</svg>
